inDegrees=no
num_controls=7
num_derivatives=13
num_iterations=121
num_multipliers=7
num_parameters=0
num_slacks=7
num_states=26
objective=0.497104
objective_accelerations=0.032463
objective_balance=0.003295
objective_effort=0.035111
objective_height=0.420732
objective_ligament=0.005504
solver_duration=1385.279263
status=Solve_Succeeded
success=true
DataType=double
version=3
OpenSimVersion=4.5
endheader
time	/jointset/ground_pelvis/pelvis_tilt/value	/jointset/ground_pelvis/pelvis_tx/value	/jointset/ground_pelvis/pelvis_ty/value	/jointset/hip_r/hip_flexion_r/value	/jointset/hip_r/hip_adduction_r/value	/jointset/hip_r/hip_rotation_r/value	/jointset/back/lumbar_extension/value	/jointset/patellofemoral_r/patellar_flexion_r/value	/jointset/knee_r/knee_flexion_r/value	/jointset/knee_r/knee_adduction_r/value	/jointset/knee_r/knee_rotation_r/value	/jointset/ankle_r/ankle_angle_r/value	/jointset/subtalar_r/subtalar_angle_r/value	/jointset/ground_pelvis/pelvis_tilt/speed	/jointset/ground_pelvis/pelvis_tx/speed	/jointset/ground_pelvis/pelvis_ty/speed	/jointset/hip_r/hip_flexion_r/speed	/jointset/hip_r/hip_adduction_r/speed	/jointset/hip_r/hip_rotation_r/speed	/jointset/back/lumbar_extension/speed	/jointset/patellofemoral_r/patellar_flexion_r/speed	/jointset/knee_r/knee_flexion_r/speed	/jointset/knee_r/knee_adduction_r/speed	/jointset/knee_r/knee_rotation_r/speed	/jointset/ankle_r/ankle_angle_r/speed	/jointset/subtalar_r/subtalar_angle_r/speed	/forceset/tau_hip_flexion_r	/forceset/tau_hip_adduction_r	/forceset/tau_hip_rotation_r	/forceset/tau_knee_flexion_r	/forceset/tau_ankle_angle_r	/forceset/tau_subtalar_angle_r	/forceset/tau_lumbar_extension	lambda_cid13_p0	lambda_cid14_p0	lambda_cid14_p1	lambda_cid14_p2	lambda_cid14_p3	lambda_cid14_p4	lambda_cid14_p5	/jointset/ground_pelvis/pelvis_tilt/accel	/jointset/ground_pelvis/pelvis_tx/accel	/jointset/ground_pelvis/pelvis_ty/accel	/jointset/hip_r/hip_flexion_r/accel	/jointset/hip_r/hip_adduction_r/accel	/jointset/hip_r/hip_rotation_r/accel	/jointset/back/lumbar_extension/accel	/jointset/patellofemoral_r/patellar_flexion_r/accel	/jointset/knee_r/knee_flexion_r/accel	/jointset/knee_r/knee_adduction_r/accel	/jointset/knee_r/knee_rotation_r/accel	/jointset/ankle_r/ankle_angle_r/accel	/jointset/subtalar_r/subtalar_angle_r/accel	gamma_cid13_p0	gamma_cid14_p0	gamma_cid14_p1	gamma_cid14_p2	gamma_cid14_p3	gamma_cid14_p4	gamma_cid14_p5
1.5	-0.106901233838981	0.06149606194797009	0.8711420716958793	0.6646171115275605	-0.2275857143196598	-0.1435843049177042	-0.2801718256989768	0.6449964116823685	0.6449964116823708	0.04192210832830253	0.1743908018553698	0.25733864077924	0.05837042009137063	0.2294161095767971	0.1169274198821695	0.3231793253224457	-1.437487219634482	0.01917450223748307	-0.2821138715133157	0.698373308574346	-1.738678192593697	-1.738678192593737	0.2751031101352086	0.000657882437505637	-0.6199431279500836	-0.1522176072347624	-0.06487296306353323	-0.01626964456316432	0.006683445924974453	-0.3230299265678925	0.05615248780230746	-0.01238269780485516	0.1223183654767864	-34.34943374101929	-23.78203808783079	-5.544147252242102	-3.222501947918729	3.324157096826815	-663.1035657953016	57.06046664077154	0.04734548400294162	0.2689274725390846	-0.4391500081134359	-0.7345696869470971	-0.0199931015736145	-0.5472500074100437	1.22525819060584	-1.029436701056345	-1.029436701056365	0.3965750905919403	-0.003089487041996462	-0.4638724754018748	-0.03613522826360376	1.133954033699378e-07	1.487942720413376e-07	-5.529400055427936e-07	1.20748440917178e-06	-1.849343983111474e-08	1.713397199222951e-07	-8.6726658470838e-07
1.51	-0.1046051341818776	0.06267862664133357	0.874351188384526	0.6502074523721771	-0.2273957000490516	-0.1464319224229136	-0.273127680756512	0.6275605690483519	0.6275605690483566	0.04469469952366358	0.1743974425843754	0.2511166423693267	0.05684563942555401	0.2297706634122634	0.1195677458059594	0.3185768269715626	-1.444245202570074	0.01882887871448802	-0.287394307127548	0.7103546746251374	-1.748242159225418	-1.748242159225487	0.2793982068895966	0.0006643611514049613	-0.6243676531688662	-0.1527112814929681	-0.05942911477426766	-0.01822414549284916	0.006033958018263403	-0.3199043745815747	0.0601726827378621	-0.01308085071154164	0.1172451808711194	-35.24153806755768	-22.36568225496679	-5.484386115730514	-3.36335852690359	2.815893368708422	-660.0676358430187	57.24814353412054	0.02455146127448141	0.2589189967852772	-0.4808413622661264	-0.6164831202911921	-0.04162757564654138	-0.5159398910831786	1.169425018026771	-0.8826759157032144	-0.8826759157074507	0.4434075152040242	0.001846926043371923	-0.4183926582295082	-0.05186580532208011	1.227672242859941e-07	1.504119080033646e-07	-6.722523098404079e-07	1.23030039089391e-06	-6.975294307216539e-09	1.777207372722889e-07	-9.54031258778963e-07
1.52	-0.1023064807608353	0.06388706136283179	0.8775122717669257	0.6357361992827469	-0.2272090981332682	-0.1493318441947969	-0.2659667523123986	0.6100365268937193	0.6100365268937364	0.0475097277960365	0.1744040141756092	0.2448530686846028	0.05531674556101075	0.2299268623659924	0.122101425509117	0.3135726640730735	-1.449806006442702	0.01849203127212985	-0.2925747248479152	0.7217300089043888	-1.756318096716066	-1.756318096716163	0.2835905255376568	0.0006440548828032533	-0.6282581829121685	-0.1530402469800946	-0.05398526648500681	-0.02017864642253952	0.005384470111578072	-0.3167788225952579	0.06419287767341601	-0.01377900361823632	0.1121719962654489	-36.1003935462115	-20.95830328438063	-5.423667806764144	-3.507257234607978	2.304045026886804	-657.1789557812413	57.50827052327328	0.007674507655272208	0.247598228412835	-0.5194829176346284	-0.4951338743540327	-0.01823788544625788	-0.5272464286370127	1.104051836297703	-0.7318308728416441	-0.7318308728416552	0.3760194693264258	-0.008446483542206003	-0.3570733803055661	-0.00319347404771137	1.321301172947944e-07	1.512904894178486e-07	-7.914912064429911e-07	1.247983889250251e-06	4.989791553949097e-09	1.826059768841358e-07	-1.036219551091941e-06
1.53	-0.100007282077357	0.06512026569804658	0.8806213562257632	0.6212153833753838	-0.2270258665605562	-0.1522832762553536	-0.2586951771741899	0.5924392352482493	0.5924392352483272	0.05036612079275724	0.1744104662691655	0.2385532717048165	0.05378533054948421	0.2298792322761533	0.1245179347581367	0.3081826304524413	-1.454150993980501	0.01815598269842446	-0.2976924615245628	0.7324730678596314	-1.762883414802954	-1.762883414802971	0.2876676252808835	0.0006402330987789393	-0.6316088970002341	-0.1532147443200653	-0.04845989112489014	-0.02226117689689213	0.004752418261805044	-0.3137434132789676	0.06833931255687802	-0.01460753540207807	0.1070422575962692	-36.92148309532202	-19.52414746574843	-5.422791587393784	-3.632582959622561	1.807135504786939	-654.384154692253	57.70363870325824	-0.0160130914652821	0.235456075237182	-0.5579656372639944	-0.3732360082918169	-0.04091400986863404	-0.500932930450979	1.042640293197144	-0.5803889386152195	-0.5803889386032965	0.4204276439340598	0.002949761157742272	-0.3102030592102318	-0.02038007487987571	1.414835244021353e-07	1.513838253755681e-07	-9.106521073696037e-07	1.260214124030444e-06	1.742975152346138e-08	1.859019526492016e-07	-1.113545437787464e-06
1.54	-0.09770956595961673	0.06637699088616923	0.8836746999377971	0.6066573066296774	-0.2268459206068862	-0.155285264811332	-0.2513195299728184	0.5747839890895048	0.5747839890896561	0.05326265927033132	0.1744167401022836	0.2322227410569186	0.05225301012237634	0.2296303492198667	0.1268055960906905	0.3024245147123572	-1.457258174110259	0.01783490746328106	-0.3026860239321049	0.7425444215372801	-1.767908999369956	-1.767908999369893	0.2916196217086416	0.0006084027943660388	-0.6344049165344244	-0.1532213300963607	-0.04293451576477785	-0.02434370737124975	0.004120366412068135	-0.3107080039626788	0.07248574744033938	-0.01543606718592726	0.1019125189270863	-37.70030002173524	-18.09958402079504	-5.420590037798314	-3.761553125429561	1.306751025514528	-651.7492644050567	57.97617374902352	-0.0325760856344725	0.2218286451198552	-0.5930993415249878	-0.24757239274575	-0.01524321773388013	-0.5024115748158875	0.9697107807787767	-0.4238841688644087	-0.4238841688643993	0.3509988062327897	-0.01404818761992651	-0.2461344695303034	0.03038883868741492	1.512857657716565e-07	1.508759848649362e-07	-1.036910302192781e-06	1.26757147411102e-06	3.0725490937142e-08	1.888453754317687e-07	-1.189589899278956e-06
